<?xml version="1.0" standalone="no"?>
<!DOCTYPE svg PUBLIC "-//W3C//DTD SVG 20010904//EN"
 "http://www.w3.org/TR/2001/REC-SVG-20010904/DTD/svg10.dtd">
<svg version="1.0" xmlns="http://www.w3.org/2000/svg"
 width="752.000000pt" height="752.000000pt" viewBox="0 0 752.000000 752.000000"
 preserveAspectRatio="xMidYMid meet">
<metadata>
Created by potrace 1.14, written by Peter Selinger 2001-2017
</metadata>
<g transform="translate(0.000000,752.000000) scale(0.100000,-0.100000)"
fill="#000000" stroke="none">
<path d="M2285 6605 c-127 -28 -272 -94 -358 -164 -194 -157 -331 -382 -390
-640 -30 -129 -28 -261 5 -386 6 -22 11 -44 13 -50 2 -9 6 -22 22 -62 3 -10 7
-20 8 -23 10 -42 161 -311 178 -318 4 -2 7 -8 7 -13 0 -9 69 -116 105 -164 8
-10 15 -24 15 -30 0 -7 -120 -10 -373 -10 -341 -1 -543 -7 -607 -20 -14 -3
-42 -8 -62 -10 -31 -4 -118 -22 -192 -40 -77 -18 -247 -90 -254 -107 -2 -5 -8
-8 -14 -8 -9 0 -84 -57 -118 -90 -131 -129 -210 -338 -226 -592 -5 -87 -5 -91
-4 -149 1 -19 0 -39 -1 -45 -1 -5 0 -11 1 -14 1 -3 3 -39 5 -80 12 -269 37
-398 95 -485 59 -89 206 -208 297 -240 27 -10 55 -20 63 -22 56 -20 180 -27
490 -28 413 0 500 9 542 57 23 26 23 70 0 91 -42 38 -98 47 -326 52 -197 5
-349 12 -382 19 -12 2 -38 7 -59 10 -99 16 -228 64 -278 105 -70 56 -136 157
-152 230 -3 11 -7 31 -10 43 -17 80 -23 262 -11 333 3 17 8 50 11 75 8 59 43
196 60 237 8 18 12 33 10 33 -7 0 88 185 97 188 4 2 8 8 8 14 0 5 6 16 13 23
6 8 25 32 42 53 64 83 162 135 276 147 30 3 68 8 84 10 97 12 325 18 850 20
325 1 608 5 630 8 92 14 115 19 120 28 14 22 -54 105 -156 189 -35 28 -84 69
-108 89 -99 81 -228 221 -288 311 -40 61 -76 150 -98 240 -9 41 -21 84 -25 95
-7 21 -5 327 3 380 8 56 40 160 69 224 70 158 223 274 368 281 19 0 40 1 45 2
29 1 118 -16 174 -34 91 -29 299 -144 309 -169 2 -5 8 -9 13 -9 20 0 187 -147
339 -298 85 -85 184 -176 219 -203 129 -99 248 -137 291 -93 71 73 -12 207
-325 519 -72 72 -154 150 -184 175 -29 25 -59 50 -65 56 -6 6 -49 38 -95 73
-103 76 -239 143 -346 171 -99 26 -283 33 -370 15z"/>
<path d="M4343 5632 c-10 -11 -25 -28 -33 -38 -34 -44 -175 -219 -180 -224 -3
-3 -23 -27 -44 -55 -21 -27 -46 -57 -55 -65 -9 -8 -26 -28 -38 -43 -12 -15
-44 -54 -72 -85 -27 -31 -58 -66 -68 -78 -10 -11 -41 -47 -70 -80 -28 -32 -61
-70 -73 -84 -52 -60 -126 -145 -140 -160 -17 -18 -220 -250 -280 -320 -22 -25
-67 -79 -100 -120 -34 -41 -69 -84 -79 -95 -9 -11 -35 -42 -56 -70 -22 -27
-42 -52 -45 -55 -3 -3 -25 -32 -50 -65 -43 -57 -57 -75 -90 -115 -8 -10 -22
-28 -30 -40 -8 -12 -33 -46 -55 -75 -22 -29 -47 -63 -55 -75 -8 -12 -20 -28
-25 -34 -23 -25 -195 -278 -195 -287 0 -5 -4 -9 -10 -9 -5 0 -10 -5 -10 -11 0
-6 -13 -29 -29 -52 -42 -61 -121 -195 -121 -206 0 -5 -3 -11 -7 -13 -15 -6
-84 -160 -103 -231 -24 -88 -70 -209 -100 -262 -12 -22 -32 -58 -43 -80 -12
-22 -28 -46 -34 -53 -7 -7 -13 -17 -13 -21 0 -5 -26 -42 -57 -84 -109 -141
-127 -168 -167 -252 -54 -112 -58 -219 -12 -319 73 -160 342 -422 476 -464
127 -40 368 43 490 169 54 55 97 107 143 169 27 36 53 72 60 80 28 36 239 349
317 470 29 47 58 90 62 95 5 6 21 30 37 55 46 73 160 248 223 344 32 49 58 91
58 93 0 2 12 21 28 42 15 21 34 49 42 61 8 12 39 54 68 94 29 39 61 82 70 94
21 29 132 172 176 226 68 85 151 185 186 226 8 10 31 37 52 61 47 57 107 126
223 255 49 55 202 219 266 286 39 40 105 111 147 157 42 46 91 99 107 117 17
17 50 56 75 85 25 29 52 60 60 69 66 69 242 296 295 380 83 133 -32 304 -290
430 -38 19 -72 34 -75 35 -3 0 -41 15 -85 32 -130 51 -286 103 -353 118 -9 2
-48 14 -87 25 -38 12 -97 29 -130 39 -33 9 -65 20 -72 24 -7 5 -20 0 -30 -11z"/>
<path d="M5987 4323 c-2 -1 -34 -5 -72 -8 -61 -4 -113 -12 -202 -29 -37 -7
-77 -32 -64 -40 25 -16 67 -19 321 -22 282 -3 469 -10 510 -19 14 -3 41 -7 60
-11 94 -15 222 -71 334 -147 61 -41 198 -172 226 -215 8 -13 25 -35 37 -49 19
-23 98 -169 98 -183 0 -3 3 -9 6 -15 33 -55 40 -219 13 -293 -67 -181 -253
-289 -559 -326 -27 -3 -66 -8 -85 -11 -72 -10 -244 -16 -550 -20 -367 -4 -511
-11 -649 -30 l-53 -7 5 -34 c5 -32 142 -389 157 -409 9 -12 69 -190 75 -223 2
-12 6 -26 9 -30 18 -29 28 -296 15 -372 -33 -184 -122 -348 -272 -501 -211
-215 -324 -286 -487 -306 -69 -9 -439 -8 -501 1 -222 32 -401 132 -618 346
-87 86 -161 190 -161 227 0 15 -67 81 -97 95 -78 37 -146 -27 -128 -120 32
-170 402 -530 620 -603 49 -16 42 -14 143 -39 46 -11 88 -18 93 -14 5 3 9 2 9
-3 0 -18 342 -25 455 -10 361 49 690 216 917 465 48 52 138 176 138 189 0 3 6
14 14 22 21 24 55 114 72 195 18 80 25 307 12 376 -5 25 -10 61 -13 80 -13
110 -32 169 -165 502 -12 31 -15 50 -8 54 17 11 101 15 588 29 113 3 225 8
250 10 97 10 167 17 215 21 78 7 250 44 253 55 2 5 11 9 19 9 21 0 136 64 192
106 154 118 269 269 321 424 19 54 21 79 17 148 -4 46 -11 90 -18 98 -6 8 -9
14 -5 14 13 0 -53 118 -109 196 -13 18 -123 128 -174 174 -37 33 -151 104
-226 140 -123 59 -242 84 -495 106 -68 6 -478 12 -483 7z"/>
</g>
</svg>
